<?xml version="1.0" encoding="utf-8"?>
<!-- Generator: Adobe Illustrator 16.0.0, SVG Export Plug-In . SVG Version: 6.00 Build 0)  -->
<!DOCTYPE svg PUBLIC "-//W3C//DTD SVG 1.1//EN" "http://www.w3.org/Graphics/SVG/1.1/DTD/svg11.dtd">
<svg version="1.1" id="Layer_1" xmlns="http://www.w3.org/2000/svg" xmlns:xlink="http://www.w3.org/1999/xlink" x="0px" y="0px"
	 width="64px" height="64px" viewBox="0 0 64 64" enable-background="new 0 0 64 64" xml:space="preserve">
<g id="Rectangle_65">
	<g>
		<rect x="5" y="15" fill="#FFE6C3" width="54" height="46"/>
	</g>
</g>
<g id="Rectangle_67">
	<g>
		<rect x="11" y="35" fill="#B19075" width="18" height="26"/>
	</g>
</g>
<g id="Rectangle_68">
	<g>
		<path fill="#CEEDFA" d="M35,35v15h18V35H35z M15,44h10v-4H15V44z"/>
	</g>
</g>
<g id="Rounded_Rectangle_73">
	<g>
		<path fill="#2B3139" d="M26,39H14v6h12V39z M24,43h-8v-2h8V43z M58,14H6c-1.104,0-2,0.896-2,2v44c0,1.104,0.896,2,2,2h52
			c1.104,0,2-0.896,2-2V16C60,14.896,59.104,14,58,14z M28,60H12V36h16V60z M58,60H30V36c0-1.104-0.896-2-2-2H12
			c-1.104,0-2,0.896-2,2v24H6V16h52V60z M36,51h16c1.104,0,2-0.896,2-2V36c0-1.104-0.896-2-2-2H36c-1.104,0-2,0.896-2,2v13
			C34,50.104,34.896,51,36,51z M36,36h16v13H36V36z M48.486,38.24c-0.344-0.344-0.901-0.344-1.246,0
			c-0.344,0.345-0.344,0.902,0,1.246l1.246,1.245c0.344,0.345,0.901,0.345,1.245,0c0.345-0.344,0.345-0.901,0-1.245L48.486,38.24z
			 M44.586,39.172c-0.391-0.391-1.023-0.391-1.414,0s-0.391,1.023,0,1.414l4.242,4.242c0.391,0.391,1.023,0.391,1.414,0
			s0.391-1.023,0-1.414L44.586,39.172z"/>
	</g>
</g>
<g id="Rounded_Rectangle_72">
	<g>
		<path fill="#FFFFFF" d="M2,11v12c0,3.313,2.687,6,6,6s6-2.687,6-6V11l5-8h-9L2,11z M54,3h-9l5,8v12c0,3.313,2.687,6,6,6
			s6-2.687,6-6V11L54,3z M28,3l-2,8v12c0,3.313,2.687,6,6,6s6-2.687,6-6V11l-2-8H28z"/>
	</g>
</g>
<g id="Rounded_Rectangle_72_1_">
	<g>
		<path fill="#F37474" d="M14,11v12c0,3.313,2.687,6,6,6s6-2.687,6-6V11l2-8h-9L14,11z M45,3h-9l2,8v12c0,3.313,2.687,6,6,6
			s6-2.687,6-6V11L45,3z"/>
	</g>
</g>
<g id="Rounded_Rectangle_71">
	<g>
		<path fill="#2B3139" d="M62.711,10.2L54.8,2.289C54.573,2.062,54.27,1.975,53.974,2h-8.896c-0.092-0.01-0.182-0.016-0.272,0
			H19.196c-0.092-0.016-0.181-0.01-0.272,0h-8.896C9.73,1.975,9.427,2.062,9.2,2.289L1.289,10.2
			c-0.325,0.325-0.38,0.806-0.187,1.197C1.042,11.588,1,11.789,1,12v2v7v2c0,3.866,3.134,7,7,7c2.551,0,4.776-1.369,6-3.408
			C15.224,28.631,17.449,30,20,30s4.776-1.369,6-3.408C27.224,28.631,29.449,30,32,30s4.776-1.369,6-3.408
			C39.224,28.631,41.449,30,44,30s4.776-1.369,6-3.408C51.224,28.631,53.449,30,56,30c3.866,0,7-3.134,7-7v-6v-3v-2
			c0-0.211-0.042-0.412-0.103-0.603C63.091,11.006,63.036,10.525,62.711,10.2z M50.551,10l-3.763-6h6.767l6,6H50.551z M38.791,10
			l-1.543-6h7.221l3.763,6H38.791z M15.769,10l3.762-6h7.221l-1.544,6H15.769z M4.445,10l6-6h6.767l-3.763,6H4.445z M28.792,4h6.417
			l1.543,6h-9.504L28.792,4z M13,23c0,2.762-2.238,5-5,5s-5-2.238-5-5v-2v-7v-2h10V23z M25,23c0,2.762-2.238,5-5,5s-5-2.238-5-5V12
			h10V23z M37,23c0,2.762-2.238,5-5,5s-5-2.238-5-5V12h10V23z M49,23c0,2.762-2.238,5-5,5s-5-2.238-5-5V12h10V23z M61,14v3v6
			c0,2.762-2.238,5-5,5s-5-2.238-5-5V12h10V14z"/>
	</g>
</g>
</svg>
