<?xml version="1.0" encoding="utf-8"?>
<!-- Generator: Adobe Illustrator 16.0.0, SVG Export Plug-In . SVG Version: 6.00 Build 0)  -->
<!DOCTYPE svg PUBLIC "-//W3C//DTD SVG 1.1//EN" "http://www.w3.org/Graphics/SVG/1.1/DTD/svg11.dtd">
<svg version="1.1" id="Layer_1" xmlns="http://www.w3.org/2000/svg" xmlns:xlink="http://www.w3.org/1999/xlink" x="0px" y="0px"
	 width="64px" height="64px" viewBox="0 0 64 64" enable-background="new 0 0 64 64" xml:space="preserve">
<g id="Rectangle_88">
	<g>
		<polygon fill="#FFDFA8" points="48,11 48,23 32,7 8,31 8,59 56,59 56,11 		"/>
	</g>
</g>
<g id="Rectangle_87">
	<g>
		<path fill="#A08776" d="M32,1L1,32l3,3L32,7l28,28l3-3L32,1z M15,59h14V41H15V59z"/>
	</g>
</g>
<g id="Rectangle_89">
	<g>
		<path fill="#CFEDFA" d="M38,20H26v10h12V20z M37,51h12V41H37V51z M4,59v4h56v-4H4z"/>
	</g>
</g>
<g id="Rectangle_90">
	<g>
		<path fill="#2B3139" d="M63.723,31.284L57,24.562V11c0-0.553-0.447-1-1-1h-8c-0.553,0-1,0.447-1,1v3.562L32.716,0.277
			C32.519,0.079,32.259-0.016,32-0.013c-0.259-0.003-0.519,0.092-0.716,0.29L0.277,31.284c-0.204,0.204-0.295,0.474-0.285,0.741
			c-0.001,0.268,0.1,0.536,0.304,0.74l2.938,2.938c0.406,0.405,1.063,0.405,1.47,0c0.023-0.023,0.032-0.055,0.053-0.08L7,33.381V58
			H4c-0.553,0-1,0.447-1,1v4c0,0.552,0.447,1,1,1h56c0.553,0,1-0.448,1-1v-4c0-0.553-0.447-1-1-1h-3V33.352l2.243,2.241
			c0.021,0.025,0.029,0.057,0.053,0.08c0.406,0.405,1.063,0.405,1.47,0l2.938-2.936c0.107-0.107,0.183-0.233,0.232-0.367
			C64.087,32.009,64.017,31.577,63.723,31.284z M49,12h6v10.562l-6-6V12z M59,60v2H5v-2h11h12H59z M28,40H16c-1.104,0-2,0.896-2,2
			v16H9V31.381L32.001,8.38L55,31.354V58H30V42C30,40.896,29.104,40,28,40z M28,42v16H16V42H28z M59.956,33.546l-3.232-3.229
			c-0.014-0.014-0.026-0.027-0.041-0.041L32.809,6.428c-0.032-0.047-0.052-0.101-0.094-0.143C32.518,6.089,32.258,5.998,32,6.004
			c-0.258-0.006-0.518,0.084-0.715,0.281c-0.043,0.043-0.062,0.097-0.096,0.145L7.396,30.223c-0.066,0.051-0.122,0.107-0.173,0.173
			l-3.179,3.179l-1.621-1.621L32,2.377l15.216,15.216c0.056,0.073,0.118,0.136,0.191,0.191l7.809,7.809
			c0.056,0.073,0.118,0.136,0.191,0.191l6.156,6.156L59.956,33.546z M19,56h6c0.553,0,1-0.447,1-1s-0.447-1-1-1h-6
			c-0.553,0-1,0.447-1,1S18.447,56,19,56z M40,31c0.553,0,1-0.448,1-1c0-0.553-0.447-1-1-1h-1v-8c0-1.104-0.896-2-2-2H27
			c-1.104,0-2,0.896-2,2v8h-1c-0.553,0-1,0.447-1,1c0,0.552,0.447,1,1,1h3h10H40z M33,21h4v3h-4V21z M31,29h-4v-3h4V29z M31,24h-4
			v-3h4V24z M33,26h4v3h-4V26z M36,42v8h-1c-0.553,0-1,0.447-1,1s0.447,1,1,1h3h10h3c0.553,0,1-0.447,1-1s-0.447-1-1-1h-1v-8
			c0-1.104-0.896-2-2-2H38C36.896,40,36,40.896,36,42z M42,50h-4v-3h4V50z M44,42h4v3h-4V42z M44,47h4v3h-4V47z M42,45h-4v-3h4V45z
			 M52,8c0.553,0,1-0.447,1-1c0-1.104,0.896-2,2-2c2.209,0,4-1.791,4-4c0-0.553-0.447-1-1-1s-1,0.447-1,1c0,1.104-0.896,2-2,2
			c-2.209,0-4,1.791-4,4C51,7.553,51.447,8,52,8z"/>
	</g>
</g>
</svg>
